<?xml version="1.0" encoding="utf-8"?>
<!-- Generator: Adobe Illustrator 24.2.1, SVG Export Plug-In . SVG Version: 6.00 Build 0)  -->
<svg version="1.1" id="レイヤー_1" xmlns="http://www.w3.org/2000/svg" xmlns:xlink="http://www.w3.org/1999/xlink" x="0px"
	 y="0px" viewBox="0 0 1280 1024" style="enable-background:new 0 0 1280 1024;" xml:space="preserve">
<style type="text/css">
	.st0{fill:#FFA233;}
	.st1{fill:#FFFFFF;}
	.st2{font-family:'HiraginoSans-W5-83pv-RKSJ-H';}
	.st3{font-size:75.4026px;}
	.st4{letter-spacing:7;}
	.st5{font-size:131.1865px;}
	.st6{letter-spacing:13;}
	.st7{letter-spacing:3;}
	.st8{font-family:'HiraginoSans-W3-83pv-RKSJ-H';}
	.st9{font-size:48px;}
	.st10{letter-spacing:2;}
	.st11{letter-spacing:14;}
</style>
<g>
	<path d="M1146.03,764H166.36c-18.46,0-33.42-14.96-33.42-33.42V294.42c0-18.46,14.96-33.42,33.42-33.42h979.66
		c18.46,0,33.42,14.96,33.42,33.42v436.16C1179.44,749.04,1164.48,764,1146.03,764z"/>
</g>
<g>
	<path class="st0" d="M1129.83,742H150.17c-18.46,0-33.42-14.96-33.42-33.42V272.42c0-18.46,14.96-33.42,33.42-33.42h979.66
		c18.46,0,33.42,14.96,33.42,33.42v436.16C1163.25,727.04,1148.29,742,1129.83,742z"/>
</g>
<text transform="matrix(1 0 0 1 329.3906 464.4414)" class="st1 st2 st3 st4">ご相談は</text>
<text transform="matrix(1 0 0 1 656.3906 456.5298)" class="st1 st2 st5 st6">無料</text>
<g>
	<text transform="matrix(1 0 0 1 413.793 569.4414)" class="st1 st2 st3 st7">相談してみる</text>
</g>
<text transform="matrix(1 0 0 1 441.4001 667.6514)"><tspan x="0" y="0" class="st1 st8 st9 st10">最</tspan><tspan x="50.4" y="0" class="st1 st8 st9 st11">安</tspan><tspan x="112.8" y="0" class="st1 st8 st9 st10">50,000〜円</tspan></text>
</svg>
