<?xml version="1.0" encoding="utf-8"?>
<!-- Generator: Adobe Illustrator 24.2.1, SVG Export Plug-In . SVG Version: 6.00 Build 0)  -->
<svg version="1.1" id="レイヤー_2" xmlns="http://www.w3.org/2000/svg" xmlns:xlink="http://www.w3.org/1999/xlink" x="0px"
	 y="0px" viewBox="0 0 1136 229" style="enable-background:new 0 0 1136 229;" xml:space="preserve">
<style type="text/css">
	.st0{fill:#E3844D;}
	.st1{fill:#FFFFFF;}
	.st2{font-family:'HiraginoSans-W6-83pv-RKSJ-H';}
	.st3{font-size:36px;}
	.st4{letter-spacing:1;}
	.st5{font-size:103px;}
	.st6{letter-spacing:5;}
	.st7{font-size:53.3828px;}
	.st8{letter-spacing:2;}
	.st9{font-family:'HiraginoSans-W3-83pv-RKSJ-H';}
	.st10{font-size:30px;}
	.st11{letter-spacing:9;}
</style>
<path d="M1030.5,229h-924C48.23,229,1,181.77,1,123.5v0C1,65.23,48.23,18,106.5,18h924c58.27,0,105.5,47.23,105.5,105.5v0
	C1136,181.77,1088.77,229,1030.5,229z"/>
<path class="st0" d="M1030,211H106C47.73,211,0.5,163.77,0.5,105.5v0C0.5,47.23,47.73,0,106,0l924,0
	c58.27,0,105.5,47.23,105.5,105.5v0C1135.5,163.77,1088.27,211,1030,211z"/>
<g>
	<text transform="matrix(1 0 0 1 202.2793 123.8828)" class="st1 st2 st3 st4">ご相談は</text>
	<text transform="matrix(1 0 0 1 369.7207 123.4414)" class="st1 st2 st5 st6">無料</text>
	<g>
		<text transform="matrix(1 0 0 1 597.4092 124.3076)" class="st1 st2 st7 st8">相談してみる</text>
	</g>
</g>
<text transform="matrix(1 0 0 1 443.8752 181.2861)"><tspan x="0" y="0" class="st1 st9 st10 st4">最</tspan><tspan x="31.5" y="0" class="st1 st9 st10 st11">安</tspan><tspan x="70.5" y="0" class="st1 st9 st10 st4">50,000〜円</tspan></text>
</svg>
